Patient4_TMGait_0pt2_01_left_08_GRF.mot
version=1
nRows=45
nColumns=19
inDegrees=no
endheader
time	F1x	F1y	F1z	M1x	M1y	M1z	F2x	F2y	F2z	M2x	M2y	M2z	EC1x	EC1y	EC1z	EC2x	EC2y	EC2z
17.36	4.5829	82.7782	7.645	-28.4929	-6.2862	78.0195	5.4187	705.1741	-31.5003	273.284	34.6364	744.1357	-0.0592	0.0182	-0.0073	-0.0462	0.0165	0.9585
17.3848	2.7878	74.8222	7.4459	-25.7136	-6.5725	70.6311	3.2604	712.8979	-31.1167	276.6637	34.7617	750.252	-0.0592	0.0182	-0.0073	-0.0462	0.0165	0.9585
17.4096	0.906	64.7593	7.0162	-22.2177	-6.68	61.2357	1.1386	722.4368	-31.0031	280.7272	35.1464	758.2909	-0.0592	0.0182	-0.0073	-0.0462	0.0165	0.9585
17.4344	-0.84073	53.1801	6.3248	-18.2134	-6.5145	50.3813	-0.92472	733.5524	-31.1691	285.3497	35.8014	768.1514	-0.0592	0.0182	-0.0073	-0.0462	0.0165	0.9585
17.4591	-2.2006	40.9923	5.3853	-14.0145	-6.0073	38.93	-2.9838	746.1025	-31.5553	290.458	36.686	779.7658	-0.0592	0.0182	-0.0073	-0.0462	0.0165	0.9585
17.4839	-2.939	29.2244	4.258	-9.9728	-5.1349	27.8554	-5.0949	759.9881	-32.0654	296.0098	37.7161	793.0295	-0.0592	0.0182	-0.0073	-0.0462	0.0165	0.9585
17.5087	-2.9821	18.8394	3.0613	-6.4152	-3.9812	18.0636	-7.2315	775.0307	-32.582	301.9431	38.7498	807.6678	-0.0592	0.0182	-0.0073	-0.0462	0.0165	0.9585
17.5335	-2.5625	10.5263	1.9626	-3.5718	-2.7791	10.2108	-9.26	790.8185	-32.9924	308.1122	39.6087	823.1016	-0.0592	0.0182	-0.0073	-0.0462	0.0165	0.9585
17.5583	-1.9627	4.4397	1.0717	-1.4908	-1.7252	4.4516	-10.9536	806.6097	-33.2219	314.2442	40.1222	838.3827	-0.0592	0.0182	-0.0073	-0.0462	0.0165	0.9585
17.5831	-1.3636	0.31517	0.41573	-0.078089	-0.90507	0.5254	-12.0398	821.2136	-33.2541	319.8873	40.1692	852.1144	-0.0592	0.0182	-0.0073	-0.0462	0.0165	0.9585
17.6079	-0.86221	-2.3134	-0.026203	0.829	-0.32934	-2.0238	-12.3034	832.9491	-33.1118	324.3903	39.6979	862.4665	-0.0592	0.0182	-0.0073	-0.0462	0.0165	0.9585
17.6326	-0.49331	-3.9561	-0.29826	1.4077	0.03897	-3.6902	-11.6794	840.0192	-32.832	327.0521	38.7313	867.5879	-0.0592	0.0182	-0.0073	-0.0462	0.0165	0.9585
17.6574	-0.24824	-5.0723	-0.45386	1.8167	0.26137	-4.916	-10.2609	841.1718	-32.4369	327.3841	37.3401	866.2667	-0.0592	0.0182	-0.0073	-0.0462	0.0165	0.9585
17.6822	-0.090953	-6.0059	-0.54559	2.1744	0.40354	-6.026	-8.2063	836.2305	-31.9144	325.3213	35.5863	858.4175	-0.0592	0.0182	-0.0073	-0.0462	0.0165	0.9585
17.707	0.033104	-6.9411	-0.61541	2.5415	0.52359	-7.1812	-5.6829	826.1395	-31.2445	321.2412	33.5267	845.0936	-0.0592	0.0182	-0.0073	-0.0462	0.0165	0.9585
17.7318	0.18889	-7.8683	-0.68878	2.9068	0.66755	-8.3425	-2.8464	812.5667	-30.435	315.8069	31.2388	828.0685	-0.0592	0.0182	-0.0073	-0.0462	0.0165	0.9585
17.7566	0.44327	-8.5425	-0.77615	3.1736	0.8692	-9.2248	0.18207	797.3555	-29.5228	309.7501	28.8123	809.2705	-0.0592	0.0182	-0.0073	-0.0462	0.0165	0.9585
17.7814	0.85425	-8.4419	-0.8709	3.1423	1.1453	-9.2344	3.3172	782.0638	-28.5678	303.6878	26.3459	790.3208	-0.0592	0.0182	-0.0073	-0.0462	0.0165	0.9585
17.8061	1.4673	-6.7519	-0.94727	2.5056	1.4857	-7.4488	6.486	767.6627	-27.6475	298.0015	23.9488	772.2429	-0.0592	0.0182	-0.0073	-0.0462	0.0165	0.9585
17.8309	2.3037	-2.3796	-0.95394	0.85296	1.8403	-2.6374	9.6024	754.393	-26.8465	292.7801	21.7388	755.3427	-0.0592	0.0182	-0.0073	-0.0462	0.0165	0.9585
17.8557	3.3389	5.9759	-0.8105	-2.3032	2.1077	6.6624	12.5482	741.7695	-26.2439	287.8217	19.837	739.2296	-0.0592	0.0182	-0.0073	-0.0462	0.0165	0.9585
17.8805	4.4695	19.6537	-0.40913	-7.4624	2.1251	21.9679	15.162	728.7236	-25.8742	282.6932	18.3347	722.9605	-0.0592	0.0182	-0.0073	-0.0462	0.0165	0.9585
17.9053	5.458	39.7333	0.37991	-15.026	1.6515	44.5177	17.2579	713.8189	-25.7005	276.8229	17.2655	705.2354	-0.0592	0.0182	-0.0073	-0.0462	0.0165	0.9585
17.9301	5.8339	66.6219	1.6858	-25.1405	0.35525	74.7986	18.6608	695.5256	-25.6202	269.6103	16.5997	684.6516	-0.0592	0.0182	-0.0073	-0.0462	0.0165	0.9585
17.9549	5.0967	99.6903	3.6225	-37.5597	-2.092	112.1438	19.2433	672.5929	-25.4879	260.5717	16.2473	660.0479	-0.0592	0.0182	-0.0073	-0.0462	0.0165	0.9585
17.9796	3.2192	137.2724	6.2838	-51.6404	-5.8186	154.6921	18.9817	644.4813	-25.1508	249.506	16.0675	630.9074	-0.0592	0.0182	-0.0073	-0.0462	0.0165	0.9585
18.0044	0.55185	176.9071	9.5769	-66.453	-10.5878	199.6374	17.9884	611.6589	-24.4907	236.6031	15.8994	597.6356	-0.0592	0.0182	-0.0073	-0.0462	0.0165	0.9585
18.0292	-2.4523	216.4063	13.0661	-81.1964	-15.725	244.4738	16.51	575.6682	-23.4764	222.4635	15.613	561.6282	-0.0592	0.0182	-0.0073	-0.0462	0.0165	0.9585
18.054	-5.4309	254.3526	16.3302	-95.3594	-20.6114	287.5901	14.8426	538.7244	-22.1702	207.9395	15.1454	524.9111	-0.0592	0.0182	-0.0073	-0.0462	0.0165	0.9585
18.0788	-8.1469	289.7356	19.0966	-108.5693	-24.8489	327.8687	13.2303	503.0507	-20.7076	193.8788	14.5174	489.5363	-0.0592	0.0182	-0.0073	-0.0462	0.0165	0.9585
18.1036	-10.4684	321.6203	21.2622	-120.466	-28.2735	364.3109	11.8067	470.3407	-19.2748	180.9213	13.8364	457.0778	-0.0592	0.0182	-0.0073	-0.0462	0.0165	0.9585
18.1284	-12.3586	349.1649	22.8382	-130.7125	-30.8849	396.0332	10.6007	441.533	-18.0402	169.422	13.2331	428.4102	-0.0592	0.0182	-0.0073	-0.0462	0.0165	0.9585
18.1531	-13.8635	371.8912	23.8704	-139.1099	-32.7506	422.5446	9.5994	416.8769	-17.0931	159.4856	12.7867	403.7609	-0.0592	0.0182	-0.0073	-0.0462	0.0165	0.9585
18.1779	-15.0664	389.9405	24.408	-145.6985	-33.9516	444.0113	8.8043	396.1157	-16.4434	151.0356	12.5047	382.8781	-0.0592	0.0182	-0.0073	-0.0462	0.0165	0.9585
18.2027	-16.0392	404.0413	24.5327	-150.7444	-34.5952	461.2122	8.2507	378.7003	-16.0612	143.8854	12.3486	365.2256	-0.0592	0.0182	-0.0073	-0.0462	0.0165	0.9585
18.2275	-16.8242	415.1962	24.4028	-154.6182	-34.8592	475.1983	7.9737	364.0104	-15.9187	137.8157	12.2835	350.1945	-0.0592	0.0182	-0.0073	-0.0462	0.0165	0.9585
18.2523	-17.4461	424.4172	24.2097	-157.6979	-34.9552	487.0095	7.9673	351.4825	-15.9954	132.6227	12.2981	337.233	-0.0592	0.0182	-0.0073	-0.0462	0.0165	0.9585
18.2771	-17.9102	432.591	24.0939	-160.3222	-35.0383	497.5294	8.1873	340.6203	-16.254	128.124	12.3838	325.8603	-0.0592	0.0182	-0.0073	-0.0462	0.0165	0.9585
18.3019	-18.2028	440.4002	24.1127	-162.7636	-35.1718	507.4171	8.5691	331.0108	-16.637	124.1667	12.5238	315.6824	-0.0592	0.0182	-0.0073	-0.0462	0.0165	0.9585
18.3266	-18.3154	448.2369	24.2582	-165.193	-35.3518	517.0436	9.0376	322.3631	-17.0839	120.6425	12.6989	306.4285	-0.0592	0.0182	-0.0073	-0.0462	0.0165	0.9585
18.3514	-18.2722	456.1774	24.4733	-167.6624	-35.5347	526.4804	9.5138	314.523	-17.5461	117.4918	12.8986	297.9621	-0.0592	0.0182	-0.0073	-0.0462	0.0165	0.9585
18.3762	-18.1363	464.0661	24.6814	-170.1343	-35.6685	535.58	9.9273	307.4524	-17.9871	114.6963	13.1197	290.2571	-0.0592	0.0182	-0.0073	-0.0462	0.0165	0.9585
18.401	-18.0036	471.6864	24.8152	-172.541	-35.7166	544.1521	10.2333	301.1422	-18.3723	112.2437	13.3477	283.3151	-0.0592	0.0182	-0.0073	-0.0462	0.0165	0.9585
18.4258	-17.9643	478.9349	24.8456	-174.8486	-35.6733	552.1213	10.4581	295.4566	-18.6663	110.0708	13.5361	277.0155	-0.0592	0.0182	-0.0073	-0.0462	0.0165	0.9585
18.4506	-18.0578	485.9311	24.799	-177.1002	-35.5696	559.6165	10.7423	289.9977	-18.8372	108.0145	13.5985	270.9868	-0.0592	0.0182	-0.0073	-0.0462	0.0165	0.9585
